<svg width="1389" height="1389" viewBox="0 0 1389 1389" fill="none" xmlns="http://www.w3.org/2000/svg">
<mask id="mask0_1610_416" style="mask-type:luminance" maskUnits="userSpaceOnUse" x="81" y="59" width="1227" height="1272">
<path d="M81 59H1307.73V1330.83H81V59Z" fill="white"/>
</mask>
<g mask="url(#mask0_1610_416)">
<mask id="mask1_1610_416" style="mask-type:luminance" maskUnits="userSpaceOnUse" x="85" y="59" width="1220" height="1268">
<path fill-rule="evenodd" clip-rule="evenodd" d="M784.739 918.934C863.946 918.934 899.145 984.644 951.962 1037.23C978.388 1063.55 1026.76 1063.55 1053.19 1037.23L1180.81 910.163C1207.2 883.886 1207.2 835.682 1180.81 809.37L1053.19 682.3C1004.78 634.096 947.558 603.434 987.161 572.771C1004.78 559.615 1017.99 550.844 1048.79 550.844C1097.2 550.844 1114.78 590.277 1150.02 620.975C1167.6 638.481 1194.02 638.481 1211.61 620.975L1290.81 542.074C1308.43 524.567 1308.43 498.255 1290.81 480.749L1211.61 401.882C1194.02 384.341 1167.6 384.341 1150.02 401.882C1119.18 432.545 1092.79 476.363 1048.79 476.363C1004.78 476.363 978.388 432.545 947.558 401.882C929.976 384.341 903.55 384.341 885.968 401.882L806.725 480.749C789.143 498.255 789.143 524.567 806.725 542.074C872.755 607.819 982.757 647.252 929.976 708.612C890.372 756.816 846.364 809.37 784.739 809.37C709.936 809.37 665.928 734.889 613.112 682.3C586.686 656.023 538.309 656.023 511.883 682.3L481.088 712.997L384.263 809.37C357.873 835.682 357.873 883.886 384.263 910.163L511.883 1037.23C538.309 1063.55 586.686 1063.55 613.112 1037.23C670.332 980.259 701.127 918.934 784.739 918.934ZM652.715 423.774L899.145 669.179C868.35 708.612 824.343 756.816 784.739 756.816C731.922 756.816 679.106 677.914 643.907 642.867C599.899 599.048 525.096 599.048 476.684 642.867L349.064 769.937C305.056 813.755 305.056 888.271 349.064 936.44L476.684 1063.55C520.691 1107.36 595.494 1107.36 643.907 1063.55C683.51 1024.08 723.114 958.367 784.739 958.367C833.151 958.367 868.35 1002.19 899.145 1041.62L652.715 1286.99C599.899 1339.58 516.287 1339.58 463.471 1286.99L124.62 949.596C71.8037 897.007 71.8037 813.755 124.62 761.166L463.471 423.774C516.287 371.185 599.899 371.185 652.715 423.774ZM1101.6 165.248L1150.02 213.452C1163.19 226.608 1185.21 226.608 1198.43 213.452L1246.8 165.248C1260.02 152.092 1260.02 130.201 1246.8 117.045L1198.43 68.8407C1185.21 55.7198 1163.19 55.7198 1150.02 68.8407L1101.6 117.045C1088.39 130.201 1088.39 152.092 1101.6 165.248Z" fill="white"/>
</mask>
<g mask="url(#mask1_1610_416)">
<path d="M72 54V1330.83H1308.63V54H72Z" fill="#E1E1E1"/>
</g>
</g>
</svg>
