<svg width="900" height="932" viewBox="0 0 900 932" fill="none" xmlns="http://www.w3.org/2000/svg">
<mask id="mask0_1867_5495" style="mask-type:luminance" maskUnits="userSpaceOnUse" x="0" y="0" width="900" height="932">
<path d="M0.711914 0H899.4V931.728H0.711914V0Z" fill="white"/>
</mask>
<g mask="url(#mask0_1867_5495)">
<mask id="mask1_1867_5495" style="mask-type:luminance" maskUnits="userSpaceOnUse" x="3" y="-1" width="894" height="930">
<path fill-rule="evenodd" clip-rule="evenodd" d="M516.265 629.972C574.291 629.972 600.078 678.112 638.771 716.64C658.13 735.916 693.571 735.916 712.93 716.64L806.423 623.547C825.757 604.296 825.757 568.982 806.423 549.705L712.93 456.612C677.464 421.298 635.544 398.834 664.558 376.371C677.464 366.732 687.144 360.307 709.704 360.307C745.17 360.307 758.051 389.196 783.863 411.685C796.744 424.51 816.103 424.51 828.983 411.685L887.01 353.881C899.916 341.056 899.916 321.779 887.01 308.954L828.983 251.176C816.103 238.325 796.744 238.325 783.863 251.176C761.277 273.64 741.944 305.741 709.704 305.741C677.464 305.741 658.13 273.64 635.544 251.176C622.664 238.325 603.305 238.325 590.424 251.176L532.372 308.954C519.491 321.779 519.491 341.056 532.372 353.881C580.745 402.047 661.331 430.936 622.664 475.889C593.651 511.203 561.411 549.705 516.265 549.705C461.465 549.705 429.225 495.14 390.532 456.612C371.173 437.361 335.732 437.361 316.373 456.612L293.813 479.102L222.88 549.705C203.546 568.982 203.546 604.296 222.88 623.547L316.373 716.64C335.732 735.916 371.173 735.916 390.532 716.64C432.452 674.9 455.012 629.972 516.265 629.972ZM419.545 267.214L600.078 447C577.518 475.889 545.278 511.203 516.265 511.203C477.572 511.203 438.879 453.4 413.092 427.723C380.852 395.621 326.053 395.621 290.586 427.723L197.093 520.816C164.853 552.918 164.853 607.509 197.093 642.798L290.586 735.916C322.826 768.018 377.626 768.018 413.092 735.916C442.106 707.001 471.119 658.861 516.265 658.861C551.731 658.861 577.518 690.963 600.078 719.852L419.545 899.612C380.852 938.14 319.599 938.14 280.906 899.612L32.6677 652.436C-6.02529 613.909 -6.02529 552.918 32.6677 514.39L280.906 267.214C319.599 228.687 380.852 228.687 419.545 267.214ZM748.397 77.8159L783.863 113.13C793.517 122.769 809.65 122.769 819.329 113.13L854.77 77.8159C864.45 68.1776 864.45 52.1395 854.77 42.5013L819.329 7.18671C809.65 -2.42584 793.517 -2.42584 783.863 7.18671L748.397 42.5013C738.717 52.1395 738.717 68.1776 748.397 77.8159Z" fill="white"/>
</mask>
<g mask="url(#mask1_1867_5495)">
<path d="M-6.02539 0V931.728H899.916V0H-6.02539Z" fill="url(#paint0_linear_1867_5495)"/>
</g>
</g>
<defs>
<linearGradient id="paint0_linear_1867_5495" x1="37.5041" y1="975.263" x2="956.336" y2="56.4306" gradientUnits="userSpaceOnUse">
<stop stop-color="#03009A"/>
<stop offset="0.125" stop-color="#03009A"/>
<stop offset="0.15625" stop-color="#03009A"/>
<stop offset="0.171875" stop-color="#03009A"/>
<stop offset="0.175781" stop-color="#04009A"/>
<stop offset="0.179688" stop-color="#05019B"/>
<stop offset="0.183594" stop-color="#06019B"/>
<stop offset="0.1875" stop-color="#06019B"/>
<stop offset="0.191406" stop-color="#07029B"/>
<stop offset="0.195313" stop-color="#08029B"/>
<stop offset="0.199219" stop-color="#09029C"/>
<stop offset="0.203125" stop-color="#0A039C"/>
<stop offset="0.207031" stop-color="#0A039C"/>
<stop offset="0.210938" stop-color="#0B039C"/>
<stop offset="0.214844" stop-color="#0C039D"/>
<stop offset="0.21875" stop-color="#0D049D"/>
<stop offset="0.222656" stop-color="#0D049D"/>
<stop offset="0.226563" stop-color="#0E049D"/>
<stop offset="0.230469" stop-color="#0F059E"/>
<stop offset="0.234375" stop-color="#10059E"/>
<stop offset="0.238281" stop-color="#10059E"/>
<stop offset="0.242188" stop-color="#11069E"/>
<stop offset="0.246094" stop-color="#12069E"/>
<stop offset="0.25" stop-color="#13069F"/>
<stop offset="0.253906" stop-color="#14069F"/>
<stop offset="0.257812" stop-color="#14079F"/>
<stop offset="0.261719" stop-color="#15079F"/>
<stop offset="0.265625" stop-color="#1607A0"/>
<stop offset="0.269531" stop-color="#1708A0"/>
<stop offset="0.273438" stop-color="#1708A0"/>
<stop offset="0.277344" stop-color="#1808A0"/>
<stop offset="0.28125" stop-color="#1909A0"/>
<stop offset="0.285156" stop-color="#1A09A1"/>
<stop offset="0.289062" stop-color="#1B09A1"/>
<stop offset="0.292969" stop-color="#1B09A1"/>
<stop offset="0.296875" stop-color="#1C0AA1"/>
<stop offset="0.300781" stop-color="#1D0AA2"/>
<stop offset="0.304688" stop-color="#1E0AA2"/>
<stop offset="0.308594" stop-color="#1E0BA2"/>
<stop offset="0.3125" stop-color="#1F0BA2"/>
<stop offset="0.316406" stop-color="#200BA2"/>
<stop offset="0.320313" stop-color="#210CA3"/>
<stop offset="0.324219" stop-color="#210CA3"/>
<stop offset="0.328125" stop-color="#220CA3"/>
<stop offset="0.332031" stop-color="#230CA3"/>
<stop offset="0.335938" stop-color="#240DA4"/>
<stop offset="0.339844" stop-color="#250DA4"/>
<stop offset="0.34375" stop-color="#250DA4"/>
<stop offset="0.347656" stop-color="#260EA4"/>
<stop offset="0.351563" stop-color="#270EA5"/>
<stop offset="0.355469" stop-color="#280EA5"/>
<stop offset="0.359375" stop-color="#280FA5"/>
<stop offset="0.363281" stop-color="#290FA5"/>
<stop offset="0.367188" stop-color="#2A0FA5"/>
<stop offset="0.371094" stop-color="#2B0FA6"/>
<stop offset="0.375" stop-color="#2B10A6"/>
<stop offset="0.378906" stop-color="#2C10A6"/>
<stop offset="0.382813" stop-color="#2D10A6"/>
<stop offset="0.386719" stop-color="#2E11A7"/>
<stop offset="0.390625" stop-color="#2F11A7"/>
<stop offset="0.394531" stop-color="#2F11A7"/>
<stop offset="0.398438" stop-color="#3011A7"/>
<stop offset="0.402344" stop-color="#3112A7"/>
<stop offset="0.40625" stop-color="#3212A8"/>
<stop offset="0.410156" stop-color="#3212A8"/>
<stop offset="0.414063" stop-color="#3313A8"/>
<stop offset="0.417969" stop-color="#3413A8"/>
<stop offset="0.421875" stop-color="#3513A9"/>
<stop offset="0.425781" stop-color="#3514A9"/>
<stop offset="0.429688" stop-color="#3614A9"/>
<stop offset="0.433594" stop-color="#3714A9"/>
<stop offset="0.4375" stop-color="#3814A9"/>
<stop offset="0.441406" stop-color="#3915AA"/>
<stop offset="0.445313" stop-color="#3915AA"/>
<stop offset="0.449219" stop-color="#3A15AA"/>
<stop offset="0.453125" stop-color="#3B16AA"/>
<stop offset="0.457031" stop-color="#3C16AB"/>
<stop offset="0.460938" stop-color="#3C16AB"/>
<stop offset="0.464844" stop-color="#3D17AB"/>
<stop offset="0.46875" stop-color="#3E17AB"/>
<stop offset="0.472656" stop-color="#3F17AC"/>
<stop offset="0.476563" stop-color="#3F17AC"/>
<stop offset="0.480469" stop-color="#4018AC"/>
<stop offset="0.484375" stop-color="#4118AC"/>
<stop offset="0.488281" stop-color="#4218AC"/>
<stop offset="0.492188" stop-color="#4319AD"/>
<stop offset="0.496094" stop-color="#4319AD"/>
<stop offset="0.5" stop-color="#4419AD"/>
<stop offset="0.503906" stop-color="#451AAD"/>
<stop offset="0.507813" stop-color="#461AAE"/>
<stop offset="0.511719" stop-color="#461AAE"/>
<stop offset="0.515625" stop-color="#471AAE"/>
<stop offset="0.519531" stop-color="#481BAE"/>
<stop offset="0.523438" stop-color="#491BAE"/>
<stop offset="0.527344" stop-color="#4A1BAF"/>
<stop offset="0.53125" stop-color="#4A1CAF"/>
<stop offset="0.535156" stop-color="#4B1CAF"/>
<stop offset="0.539063" stop-color="#4C1CAF"/>
<stop offset="0.542969" stop-color="#4D1DB0"/>
<stop offset="0.546875" stop-color="#4D1DB0"/>
<stop offset="0.550781" stop-color="#4E1DB0"/>
<stop offset="0.554688" stop-color="#4F1DB0"/>
<stop offset="0.558594" stop-color="#501EB1"/>
<stop offset="0.5625" stop-color="#501EB1"/>
<stop offset="0.566406" stop-color="#511EB1"/>
<stop offset="0.570313" stop-color="#521FB1"/>
<stop offset="0.574219" stop-color="#531FB1"/>
<stop offset="0.578125" stop-color="#541FB2"/>
<stop offset="0.582031" stop-color="#5420B2"/>
<stop offset="0.585938" stop-color="#5520B2"/>
<stop offset="0.589844" stop-color="#5620B2"/>
<stop offset="0.59375" stop-color="#5720B3"/>
<stop offset="0.597656" stop-color="#5721B3"/>
<stop offset="0.601563" stop-color="#5821B3"/>
<stop offset="0.605469" stop-color="#5921B3"/>
<stop offset="0.609375" stop-color="#5A22B3"/>
<stop offset="0.613281" stop-color="#5A22B4"/>
<stop offset="0.617188" stop-color="#5B22B4"/>
<stop offset="0.621094" stop-color="#5C23B4"/>
<stop offset="0.625" stop-color="#5D23B4"/>
<stop offset="0.628906" stop-color="#5E23B5"/>
<stop offset="0.632813" stop-color="#5E23B5"/>
<stop offset="0.636719" stop-color="#5F24B5"/>
<stop offset="0.640625" stop-color="#6024B5"/>
<stop offset="0.644531" stop-color="#6124B5"/>
<stop offset="0.648438" stop-color="#6125B6"/>
<stop offset="0.652344" stop-color="#6225B6"/>
<stop offset="0.65625" stop-color="#6325B6"/>
<stop offset="0.660156" stop-color="#6426B6"/>
<stop offset="0.664063" stop-color="#6426B7"/>
<stop offset="0.667969" stop-color="#6526B7"/>
<stop offset="0.671875" stop-color="#6626B7"/>
<stop offset="0.675781" stop-color="#6727B7"/>
<stop offset="0.679688" stop-color="#6827B8"/>
<stop offset="0.683594" stop-color="#6827B8"/>
<stop offset="0.6875" stop-color="#6928B8"/>
<stop offset="0.691406" stop-color="#6A28B8"/>
<stop offset="0.695313" stop-color="#6B28B8"/>
<stop offset="0.699219" stop-color="#6B29B9"/>
<stop offset="0.703125" stop-color="#6C29B9"/>
<stop offset="0.707031" stop-color="#6D29B9"/>
<stop offset="0.710938" stop-color="#6E29B9"/>
<stop offset="0.714844" stop-color="#6F2ABA"/>
<stop offset="0.71875" stop-color="#6F2ABA"/>
<stop offset="0.722656" stop-color="#702ABA"/>
<stop offset="0.726562" stop-color="#712BBA"/>
<stop offset="0.730469" stop-color="#722BBA"/>
<stop offset="0.734375" stop-color="#722BBB"/>
<stop offset="0.738281" stop-color="#732CBB"/>
<stop offset="0.742188" stop-color="#742CBB"/>
<stop offset="0.746094" stop-color="#752CBB"/>
<stop offset="0.75" stop-color="#752CBC"/>
<stop offset="0.753906" stop-color="#762DBC"/>
<stop offset="0.757813" stop-color="#772DBC"/>
<stop offset="0.761719" stop-color="#782DBC"/>
<stop offset="0.765625" stop-color="#792EBC"/>
<stop offset="0.769531" stop-color="#792EBD"/>
<stop offset="0.773438" stop-color="#7A2EBD"/>
<stop offset="0.777344" stop-color="#7B2FBD"/>
<stop offset="0.78125" stop-color="#7C2FBD"/>
<stop offset="0.785156" stop-color="#7C2FBE"/>
<stop offset="0.789063" stop-color="#7D2FBE"/>
<stop offset="0.792969" stop-color="#7E30BE"/>
<stop offset="0.796875" stop-color="#7F30BE"/>
<stop offset="0.800781" stop-color="#7F30BF"/>
<stop offset="0.804688" stop-color="#8031BF"/>
<stop offset="0.8125" stop-color="#8131BF"/>
<stop offset="0.875" stop-color="#8131BF"/>
<stop offset="1" stop-color="#8131BF"/>
</linearGradient>
</defs>
</svg>
