<?xml version="1.0" standalone="no"?>
<!DOCTYPE svg PUBLIC "-//W3C//DTD SVG 20010904//EN"
 "http://www.w3.org/TR/2001/REC-SVG-20010904/DTD/svg10.dtd">
<svg version="1.0" xmlns="http://www.w3.org/2000/svg"
 width="680.000000pt" height="680.000000pt" viewBox="0 0 680.000000 680.000000"
 preserveAspectRatio="xMidYMid meet">
<metadata>
Created by potrace 1.14, written by Peter Selinger 2001-2017
</metadata>
<g transform="translate(0.000000,680.000000) scale(0.100000,-0.100000)"
fill="#000000" stroke="none">
<path d="M1605 6654 c-38 -20 -82 -45 -97 -55 -14 -11 -29 -19 -32 -19 -2 0
-55 -29 -117 -65 -61 -36 -113 -65 -115 -65 -2 0 -33 -18 -69 -40 -36 -22 -67
-40 -69 -40 -10 0 -152 -85 -158 -94 -4 -6 -8 -7 -8 -2 0 5 -8 2 -17 -6 -10
-8 -25 -18 -33 -21 -8 -4 -37 -20 -65 -36 -27 -17 -70 -41 -95 -55 -25 -13
-96 -54 -159 -90 -62 -36 -117 -66 -121 -66 -4 0 -13 -7 -20 -15 -7 -8 -16
-12 -21 -9 -5 3 -9 0 -9 -5 0 -6 -4 -11 -10 -11 -15 0 -47 -34 -65 -69 -14
-27 -15 -290 -12 -2628 1 -1429 6 -2611 10 -2628 4 -16 10 -43 13 -60 23 -119
161 -333 254 -395 12 -8 28 -19 34 -25 57 -50 178 -108 271 -131 17 -4 37 -9
45 -11 42 -12 232 -10 296 3 104 22 237 78 287 122 9 8 17 11 17 6 0 -5 4 -4
8 1 4 6 18 16 32 24 14 8 66 38 115 66 50 28 97 55 105 58 8 4 29 16 45 27 17
11 38 23 48 26 9 4 17 10 17 15 0 5 5 9 10 9 13 0 174 92 178 102 2 5 9 8 16
8 8 0 25 9 39 20 15 12 29 20 32 20 3 -1 31 14 63 33 117 70 197 115 206 115
5 0 12 4 15 9 8 11 271 163 283 163 4 0 8 4 8 9 0 5 8 11 18 14 16 6 80 41
152 86 19 12 43 24 53 27 9 4 17 10 17 15 0 5 3 8 8 7 4 -1 36 15 72 36 83 50
122 72 190 109 30 17 57 34 58 39 2 4 8 8 13 8 4 0 95 50 201 112 106 61 222
128 258 148 36 20 115 66 176 102 61 35 117 68 125 72 8 4 23 12 34 19 24 15
166 97 215 125 103 58 557 321 628 363 45 27 84 49 87 49 3 0 29 16 59 35 30
19 58 35 61 35 3 0 31 16 61 35 30 19 56 35 58 35 2 0 76 42 165 94 88 51 162
91 165 88 4 -3 6 -1 6 5 0 6 24 23 53 38 54 28 61 32 142 80 27 17 59 35 70
42 11 7 29 16 41 22 26 11 109 61 184 110 65 41 164 138 207 201 86 128 126
250 141 434 3 39 7 755 9 1591 3 1192 1 1526 -9 1550 -17 41 -63 81 -107 92
-63 16 -33 31 -581 -282 -80 -46 -161 -92 -180 -104 -19 -11 -44 -25 -55 -30
-11 -5 -71 -39 -134 -75 -62 -36 -116 -66 -118 -66 -3 0 -17 -8 -31 -19 -15
-10 -51 -31 -80 -47 -29 -16 -61 -33 -70 -39 -10 -5 -40 -23 -67 -39 -66 -38
-102 -79 -109 -124 -3 -20 -5 -85 -5 -144 0 -60 0 -111 -2 -115 -1 -5 0 -12 1
-18 7 -32 6 -56 -2 -61 -4 -3 -5 -10 -2 -16 6 -9 9 -205 3 -225 -1 -5 0 -12 1
-18 7 -32 6 -56 -2 -61 -4 -3 -5 -10 -2 -16 6 -9 9 -205 3 -225 -1 -5 0 -12 1
-18 7 -32 6 -56 -2 -61 -4 -3 -5 -10 -2 -16 6 -9 9 -205 3 -225 -1 -5 0 -12 1
-18 7 -32 6 -56 -2 -61 -4 -3 -5 -10 -2 -16 6 -9 9 -205 3 -225 -1 -5 0 -12 1
-18 7 -32 6 -56 -2 -61 -4 -3 -5 -10 -2 -16 8 -12 8 -221 0 -255 -6 -28 -38
-83 -47 -83 -4 0 -14 -6 -21 -13 -7 -7 -24 -18 -38 -25 -14 -6 -59 -32 -100
-57 -41 -24 -86 -50 -100 -57 -14 -7 -49 -27 -77 -46 -29 -18 -53 -29 -53 -25
0 4 -4 3 -8 -3 -4 -5 -41 -30 -82 -53 -41 -24 -97 -57 -125 -73 -27 -16 -58
-32 -67 -35 -10 -3 -18 -9 -18 -14 0 -5 -4 -9 -9 -9 -7 0 -45 -21 -119 -65
-24 -14 -161 -93 -197 -113 -16 -9 -32 -19 -35 -22 -3 -3 -24 -14 -47 -25 -24
-11 -43 -23 -43 -27 0 -5 -4 -8 -9 -8 -7 0 -201 -109 -286 -162 -16 -10 -43
-25 -60 -33 -16 -9 -43 -24 -60 -34 -16 -10 -46 -27 -65 -38 -19 -11 -91 -53
-158 -92 -68 -39 -128 -71 -132 -71 -5 0 -10 -4 -12 -8 -1 -4 -55 -37 -118
-72 -63 -35 -116 -68 -118 -72 -2 -4 -8 -8 -12 -8 -5 0 -58 -28 -118 -63 -60
-35 -115 -67 -123 -70 -8 -4 -27 -15 -44 -26 -104 -63 -366 -211 -375 -211 -5
0 -10 -4 -10 -9 0 -11 -47 -30 -80 -33 -33 -3 -85 29 -99 59 -23 50 -7 110 38
140 14 10 28 18 31 18 3 0 24 13 47 28 24 15 44 27 47 27 2 0 77 43 166 95 89
52 166 95 171 95 5 0 9 5 9 10 0 6 4 10 9 10 5 0 47 22 93 49 45 27 103 60
128 72 25 12 47 26 50 29 3 4 37 24 75 45 39 21 73 43 76 48 3 5 8 7 10 6 2
-2 38 17 79 41 41 23 89 50 105 59 17 9 32 18 35 21 3 3 15 11 28 18 12 6 32
18 45 25 12 6 25 17 29 22 4 6 8 7 8 3 0 -4 25 8 55 27 30 19 59 35 65 35 5 0
10 5 10 10 0 6 5 10 10 10 6 0 78 39 161 88 83 48 174 101 203 117 244 139
382 220 384 227 2 4 11 8 21 8 9 0 27 9 39 20 12 11 24 20 27 20 3 0 65 34
137 76 72 42 146 84 162 94 270 154 293 170 312 215 10 26 13 175 14 766 1
404 -1 744 -4 756 -13 61 -95 117 -157 109 -37 -5 -91 -23 -99 -34 -3 -4 -15
-13 -27 -20 -155 -86 -325 -183 -368 -209 -11 -7 -27 -15 -35 -19 -16 -9 -647
-369 -670 -383 -25 -16 -303 -175 -335 -192 -16 -9 -85 -48 -152 -88 -68 -39
-127 -71 -133 -71 -5 0 -10 -4 -10 -10 0 -5 -4 -10 -10 -10 -5 0 -71 -36 -146
-80 -75 -44 -139 -80 -141 -80 -3 0 -73 -40 -173 -100 -8 -5 -37 -21 -65 -36
-27 -15 -52 -29 -55 -33 -17 -21 -124 -65 -158 -64 -67 1 -126 46 -146 109 -3
11 -7 508 -7 1105 -1 655 -5 1094 -11 1109 -20 54 -88 100 -147 100 -14 0 -57
-17 -96 -36z"/>
</g>
</svg>
