<?xml version="1.0" encoding="utf-8"?>
<!-- Generator: Adobe Illustrator 27.9.0, SVG Export Plug-In . SVG Version: 6.00 Build 0)  -->
<svg version="1.1" id="Layer_1" xmlns="http://www.w3.org/2000/svg" xmlns:xlink="http://www.w3.org/1999/xlink" x="0px" y="0px"
	 viewBox="0 0 455.8 400" style="enable-background:new 0 0 455.8 400;" xml:space="preserve">
<style type="text/css">
	.st0{fill:#DBDBDB;}
</style>
<g>
	<g>
		<g>
			<path class="st0" d="M389.6,244.9c-3.1,0-5.2-2.1-5.2-5.2c0-3.1,2.1-5.2,5.2-5.2c3,0,5.2,2,5.2,5.2
				C394.7,242.9,392.6,244.9,389.6,244.9z M389.6,233.4c-3.5,0-6.4,2.8-6.4,6.3c0,3.5,2.8,6.4,6.4,6.4c3.5,0,6.4-2.8,6.4-6.4
				C395.9,236.2,393.1,233.4,389.6,233.4z"/>
			<path class="st0" d="M389.8,239.2h-1.5v-1.3h1.5c0.7,0,1.3,0,1.3,0.6C391.2,239.2,390.5,239.2,389.8,239.2z M392.3,238.6
				c0-1.3-0.8-1.7-2.2-1.7H387v5.7h1.4v-2.4h1l1.4,2.4h1.6l-1.6-2.4C391.7,240.1,392.3,239.6,392.3,238.6z"/>
		</g>
	</g>
	<g>
		<path class="st0" d="M286.7,183.7c0-1.4,1.1-2.5,2.5-2.5h15.7c1.4,0,2.5,1.1,2.5,2.5v60.4c0,1.4-1.1,2.5-2.5,2.5h-15.7
			c-1.4,0-2.5-1.1-2.5-2.5V183.7z"/>
		<path class="st0" d="M298,156.5c-0.2-0.2-0.5-0.4-0.9-0.4c-0.4,0-0.7,0.2-0.9,0.4L280.7,172c-0.2,0.2-0.4,0.5-0.4,0.9
			c0,0.7,0.6,1.3,1.3,1.3h30.9c0.7,0,1.3-0.6,1.3-1.3c0-0.3-0.1-0.7-0.4-0.9L298,156.5z"/>
	</g>
	<path class="st0" d="M377.8,226.5h-12.9c-0.7,0-1.3-0.6-1.3-1.3c0-0.3,0.1-0.7,0.4-0.9l15.4-15.4c0.5-0.5,0.7-1.1,0.7-1.8
		c0-0.1,0-0.3,0-0.4c-2.6-16.4-16.8-28.9-33.9-28.9c-18.9,0-34.3,15.4-34.3,34.3s15.4,34.3,34.3,34.3l31.6,0.2
		c1.4,0,2.5-1.1,2.5-2.5V229C380.3,227.6,379.2,226.5,377.8,226.5z M355.1,203.4l-17.7,17.7c-0.2,0.2-0.5,0.4-0.9,0.4
		c-0.4,0-0.7-0.2-0.9-0.4c-2-2.4-3.2-5.5-3.2-8.8c0-7.6,6.2-13.8,13.8-13.8c3.3,0,6.4,1.2,8.8,3.2c0.3,0.2,0.4,0.6,0.4,1
		C355.5,202.8,355.3,203.2,355.1,203.4z"/>
	<path class="st0" d="M139.8,184.8c0-0.7-0.6-1.3-1.3-1.3c-0.3,0-0.7,0.1-0.9,0.4l-25.1,25.1c-0.2,0.2-0.4,0.5-0.4,0.9
		c0,0.6,0.4,1,0.9,1.2c3.1,0.9,5.3,3.8,5.3,7.2c0,3.7-2.7,6.8-6.2,7.4c-1.4,0.2-2.8,0.4-4.3,0.4c-14.4,0-26.1-11.7-26.1-26.1
		s11.7-26.1,26.1-26.1c4.1,0,8,0.9,11.4,2.6c0.2,0.1,0.4,0.1,0.6,0.1c0.3,0,0.7-0.1,0.9-0.4l14.2-14.2c0.2-0.2,0.4-0.5,0.4-0.9
		c0-0.4-0.2-0.8-0.6-1c-7.7-5.2-16.9-8.2-26.9-8.2c-26.5,0-48.1,21.5-48.1,48.1s21.5,48.1,48.1,48.1c11.8,0,22.6-4.3,31-11.3
		c0.5-0.5,0.9-1.2,0.9-1.9L139.8,184.8z"/>
	<path class="st0" d="M213.2,203.5c-0.1,0.3-0.3,0.5-0.6,0.5c-0.3,0-0.5-0.2-0.6-0.5c-3.9-14.7-17.3-25.6-33.2-25.6
		c-18.9,0-34.3,15.4-34.3,34.3s15.4,34.3,34.3,34.3h51.5c1.4,0,2.5-1.1,2.5-2.5l0-32.2c0-7.5,6.1-13.6,13.6-13.6
		c7.5,0,13.6,6.1,13.6,13.6l0,32.2c0,1.4,1.1,2.5,2.5,2.5h15.7c1.4,0,2.5-1.1,2.5-2.5v-31.8c0-18.9-15.4-34.3-34.3-34.3
		C230.4,177.9,217,188.8,213.2,203.5z M187.6,203.4L170,221.1c-0.2,0.2-0.5,0.4-0.9,0.4c-0.4,0-0.7-0.2-0.9-0.4
		c-2-2.4-3.2-5.5-3.2-8.8c0-7.6,6.2-13.8,13.8-13.8c3.3,0,6.4,1.2,8.8,3.2c0.3,0.2,0.4,0.6,0.4,1C188,202.8,187.9,203.2,187.6,203.4
		z M228.4,226.5h-31.6c-0.7,0-1.3-0.6-1.3-1.3c0-0.3,0.1-0.7,0.4-0.9l15.8-15.8c0.2-0.2,0.5-0.4,0.9-0.4c0.3,0,0.7,0.1,0.9,0.4
		l15.8,15.8c0.2,0.2,0.4,0.5,0.4,0.9C229.6,225.9,229.1,226.5,228.4,226.5z"/>
</g>
</svg>
