<?xml version="1.0" encoding="utf-8"?>
<!-- Generator: Adobe Illustrator 27.9.0, SVG Export Plug-In . SVG Version: 6.00 Build 0)  -->
<svg version="1.1" id="Layer_1" xmlns="http://www.w3.org/2000/svg" xmlns:xlink="http://www.w3.org/1999/xlink" x="0px" y="0px"
	 viewBox="0 0 400 400" style="enable-background:new 0 0 400 400;" xml:space="preserve">
<style type="text/css">
	.st0{fill:#DBDBDB;}
</style>
<g>
	<g id="path5287_00000111184626447339359380000014816823520271305131_">
		<path class="st0" d="M125.1,344.2L50,254.4L75.6,114l123.6-58.2l127.2,58.8L350,254.4l-74.1,89.7L125.1,344.2z M64.7,250.5
			l66.8,79.9l137.8,0l65.9-79.9L314,124.1L199.3,71.1L87.9,123.5L64.7,250.5z"/>
	</g>
	<g id="path5289_00000070837614669224067460000008453994544175555774_">
		<path class="st0" d="M236.8,174.3c-9,0-24.8,0-24.8,0V247h11.6v-63.2c0,0,10.8,0.1,13.2,0.1c7.8,0,11.3,5.4,11.2,12.2
			c-0.1,8.6-6.2,12.5-14.7,12.8c-7.1,0.3-8.3,0.2-8.6,0.2c0.1,0.1,15.9,26.2,23.6,37.9h13.5c-6.9-9.6-14.2-20.7-20.6-29.9
			c7.3-1,18.3-3.7,18.4-21C259.8,181.1,249.1,174.3,236.8,174.3L236.8,174.3z M224.7,209.1C224.7,209.1,224.7,209,224.7,209.1
			C224.7,209,224.6,209,224.7,209.1z M263.4,174.3v9.6h29.9l-30,54.2v8.9h42.3v-10h-29.9l30-54.2v-8.4L263.4,174.3L263.4,174.3z
			 M142.4,174.3l-15.6,55.2c-5.5-17.5-10.6-36.5-15.2-55.2H96.5V247h9.7v-50.1c0-1.1,0-1.7,0-2.8c0-1.1-0.1-1.1,0.2-1.5
			c6.1,16.5,9.7,36.9,14.8,54.2c0.6,0,9.6,0,9.6,0l15.7-54.2V247h10.2v-72.6H142.4L142.4,174.3z M167.1,174.3V247h37.3v-9.9h-26.7
			v-23.7h26.7v-8.6h-26.7v-19.9h26.7v-10.5L167.1,174.3L167.1,174.3z"/>
	</g>
</g>
</svg>
