<?xml version="1.0" encoding="utf-8"?>
<!-- Generator: Adobe Illustrator 27.9.0, SVG Export Plug-In . SVG Version: 6.00 Build 0)  -->
<svg version="1.1" id="Layer_1" xmlns="http://www.w3.org/2000/svg" xmlns:xlink="http://www.w3.org/1999/xlink" x="0px" y="0px"
	 viewBox="0 0 400 400" style="enable-background:new 0 0 400 400;" xml:space="preserve">
<style type="text/css">
	.st0{fill:#DBDBDB;}
</style>
<g>
	<path class="st0" d="M296.3,314c0-1.2,0.2-2.3,0.7-3.4c0.5-1,1.1-2,1.8-2.7c0.8-0.8,1.7-1.4,2.7-1.8c1-0.5,2.2-0.7,3.4-0.7
		c1.2,0,2.3,0.2,3.4,0.7c1,0.5,2,1.1,2.7,1.8c0.8,0.8,1.4,1.7,1.8,2.7c0.5,1,0.7,2.2,0.7,3.4c0,1.2-0.2,2.3-0.7,3.4
		c-0.5,1-1.1,2-1.8,2.7c-0.8,0.8-1.7,1.4-2.7,1.8c-1,0.5-2.2,0.7-3.4,0.7c-1.2,0-2.3-0.2-3.4-0.7c-1-0.5-2-1.1-2.7-1.8
		c-0.8-0.8-1.4-1.7-1.8-2.7C296.6,316.3,296.3,315.2,296.3,314z M311.9,314c0-1-0.2-1.9-0.5-2.7c-0.4-0.9-0.9-1.6-1.5-2.2
		c-0.6-0.6-1.4-1.1-2.2-1.5c-0.8-0.4-1.7-0.6-2.7-0.6s-1.9,0.2-2.7,0.6c-0.8,0.4-1.6,0.9-2.2,1.5c-0.6,0.6-1.1,1.4-1.5,2.2
		c-0.4,0.9-0.5,1.8-0.5,2.7s0.2,1.9,0.5,2.7c0.4,0.9,0.9,1.6,1.5,2.2c0.6,0.6,1.4,1.1,2.2,1.5c0.8,0.4,1.7,0.6,2.7,0.6
		s1.9-0.2,2.7-0.6c0.8-0.4,1.6-0.9,2.2-1.5c0.6-0.6,1.1-1.4,1.5-2.2C311.7,315.9,311.9,315,311.9,314z M301.7,319V309h3.8
		c2.3,0,3.5,0.9,3.5,2.8c0,0.5-0.1,0.9-0.2,1.2c-0.1,0.3-0.3,0.6-0.6,0.8c-0.2,0.2-0.5,0.4-0.8,0.5c-0.3,0.1-0.6,0.2-1,0.3l2.9,4.4
		h-1.9l-2.9-4.4h-1.2v4.4H301.7z M303.3,310.4v2.8h1.8c0.8,0,1.4-0.1,1.8-0.3c0.4-0.2,0.6-0.6,0.6-1.2c0-0.5-0.2-0.8-0.5-1
		c-0.3-0.2-0.8-0.3-1.3-0.3H303.3z"/>
	<path class="st0" d="M336.9,191l-23.4-40.5h-10.3v98.8h10.5l23.2-40.2C340.1,203.4,340.1,196.6,336.9,191z"/>
	<path class="st0" d="M87.5,150.4L87.5,150.4L64.1,191c-3.2,5.6-3.2,12.5,0,18l10.5,18.3l12.7,22h10v-98.8H87.5z"/>
	<path class="st0" d="M276.5,86.4c-3.2-5.6-9.2-9-15.6-9H140.1c-6.4,0-12.4,3.4-15.6,9l-28.2,48.8h208.4L276.5,86.4z"/>
	<path class="st0" d="M304.9,264.4H96.1h0l28.4,49.2c3.2,5.6,9.2,9,15.6,9h120.8c6.4,0,12.4-3.4,15.6-9L304.9,264.4L304.9,264.4z"/>
	<g>
		<path class="st0" d="M112.5,150.2h14.3l13.6,57.6v-57.6h13.3v99.3h-14.3l-13.1-55.8v55.8h-13.8V150.2z"/>
		<path class="st0" d="M199.8,214.3l4.7,35.2H190l-2.1-21h-11.5l-2.2,21h-14.4l4.7-35.1l7.9-64.2H192L199.8,214.3z M186.4,214.3
			l-4.3-41.3l-4.3,41.3H186.4z"/>
		<path class="st0" d="M289.9,214.3l4.7,35.2h-14.5l-2.1-21h-11.5l-2.2,21h-14.4l4.7-35.1l7.9-64.2H282L289.9,214.3z M276.5,214.3
			l-4.3-41.3l-4.3,41.3H276.5z"/>
		<path class="st0" d="M210.7,150.2l19.2,0.1c12.7,0,19.1,6.9,19.1,20.8v22.3c0,10.3-4.6,16.9-13.7,19.8c-2.2,0.7-4.5,1.1-8.7,1.1
			H225v35.2h-14.3V150.2z M225,164.3v35.8h1.6c2,0,3.4-0.1,4.1-0.4c2.6-1,4.6-3.2,4.6-6.3v-22.3c0-4.5-2.8-6.8-7-6.8H225z"/>
	</g>
</g>
</svg>
