<?xml version="1.0" encoding="utf-8"?>
<!-- Generator: Adobe Illustrator 27.9.0, SVG Export Plug-In . SVG Version: 6.00 Build 0)  -->
<svg version="1.1" id="Layer_1" xmlns="http://www.w3.org/2000/svg" xmlns:xlink="http://www.w3.org/1999/xlink" x="0px" y="0px"
	 viewBox="0 0 400 400" style="enable-background:new 0 0 400 400;" xml:space="preserve">
<style type="text/css">
	.st0{fill:#DBDBDB;}
</style>
<g>
	<g>
		<path class="st0" d="M134.2,185.8h15.6v7.8h1.1c4-6.2,9.2-9.4,15.7-9.4c12.2,0,20.4,9.7,20.4,23v33.9h-15.6v-31.6
			c0-6.8-3.8-11.6-10.1-11.6c-6.2,0-11.4,5.1-11.4,12.1v31.1h-15.6V185.8z"/>
		<path class="st0" d="M194.1,213.4c0-17.8,11.9-29.4,30-29.4c17.9,0,30,11.6,30,29.4c0,17.9-12,29.4-30,29.4
			C206,242.8,194.1,231.2,194.1,213.4z M238.3,213.4c0-9.2-5.9-15.7-14.3-15.7c-8.4,0-14.4,6.5-14.4,15.7c0,9.2,5.9,15.8,14.4,15.8
			C232.4,229.2,238.3,222.6,238.3,213.4z"/>
		<path class="st0" d="M254.3,185.8h16.5l13.1,42.2h1.1l13.2-42.2h16.4l-18.8,55.3h-22.6L254.3,185.8z"/>
		<path class="st0" d="M314.7,213.4c0-17.8,11.9-29.4,30-29.4c18,0,30,11.6,30,29.4c0,17.9-12,29.4-30,29.4
			C326.7,242.8,314.7,231.2,314.7,213.4z M359,213.4c0-9.2-5.9-15.7-14.3-15.7c-8.4,0-14.4,6.5-14.4,15.7c0,9.2,5.9,15.8,14.4,15.8
			C353.1,229.2,359,222.6,359,213.4z"/>
	</g>
	<g>
		<path class="st0" d="M25.3,212.7v28.3h27.3v-56.2c-7.2,0-14.2,2.9-19.3,8.2C28.2,198.2,25.3,205.3,25.3,212.7"/>
		<path class="st0" d="M52.6,157.2v27.9c3.6,0,7.1,0.7,10.4,2.1c3.3,1.4,6.3,3.5,8.9,6c2.5,2.6,4.5,5.7,5.9,9.1
			c1.4,3.4,2.1,7,2.1,10.7v28h27.3v-28c0-7.3-1.4-14.6-4.2-21.4c-2.7-6.8-6.8-12.9-11.8-18.1c-5.1-5.2-11.1-9.3-17.7-12.1
			C66.8,158.7,59.7,157.2,52.6,157.2z"/>
	</g>
</g>
</svg>
