<?xml version="1.0" encoding="utf-8"?>
<!-- Generator: Adobe Illustrator 27.9.0, SVG Export Plug-In . SVG Version: 6.00 Build 0)  -->
<svg version="1.1" id="Layer_1" xmlns="http://www.w3.org/2000/svg" xmlns:xlink="http://www.w3.org/1999/xlink" x="0px" y="0px"
	 viewBox="0 0 400 400" style="enable-background:new 0 0 400 400;" xml:space="preserve">
<style type="text/css">
	.st0{fill:#DBDBDB;}
</style>
<g>
	<path class="st0" d="M88.2,266.2c-15.2,0-29.8,0-45.3,0c6.4-3.7,8.2-9.6,10.1-15.5c11-35.3,22-70.5,33.1-105.7
		c1.3-4.1,1.6-7.9-2.1-11.6c1.2-0.1,2-0.2,2.8-0.2c18.2,0,36.4-0.2,54.6,0.1c5.7,0.1,11.5,0.8,16.9,2.3c16.2,4.7,23.2,17,19.6,33.4
		c-5.4,24.5-21.2,38.6-45,44.6c-10.6,2.7-21.5,3.2-32.4,2.5c-2.1-0.1-3.1,0.4-3.7,2.5c-3.7,12.1-7.4,24.1-11.3,36.1
		C84.2,259.1,84.3,262.7,88.2,266.2z M101.2,205.8c0.4,0.3,0.5,0.4,0.6,0.5c0.2,0.1,0.5,0.1,0.7,0.2c10,1.5,18.7-1.3,25.6-8.4
		c10.8-11,15.3-24.8,15.8-39.8c0.3-9.7-5.4-14.7-15.2-15.2c-1.7-0.1-3.4,0.1-5.1-0.1c-2.2-0.2-3.3,0.6-3.9,2.8
		c-6,19.3-12,38.5-18.1,57.7C101.5,204.3,101.3,205.1,101.2,205.8z"/>
	<path class="st0" d="M357,137.8c-1.7,5.5-3.4,11-5.3,16.8c-0.9-0.7-1.6-1.1-2.3-1.7c-7.1-5.4-14.8-9.4-23.8-10.4
		c-10.5-1.1-19.5,2.6-27.5,9.2c-7.5,6.2-13.3,13.9-17.8,22.4c-9.9,18.5-15.8,38.2-15.8,59.4c0,4.3,1,8.9,2.6,13
		c3.6,9.4,14.9,14.4,24.5,11.3c0.7-0.2,1.4-1.2,1.7-1.9c4.9-15.5,9.8-31,14.6-46.5c1.2-3.8,0.2-7.1-2.9-9.8
		c-0.4-0.4-0.8-0.7-1.6-1.4c16.1,0,31.8,0,48,0c-0.8,0.6-1.2,0.9-1.6,1.1c-4.1,2.4-6.6,5.8-8,10.3c-4.8,15.3-9.6,30.7-14.5,45.9
		c-0.4,1.2-1.6,2.6-2.8,3.2c-13.5,6.2-27.6,9.8-42.5,9.4c-8.6-0.2-16.9-2-24.8-5.3c-12.2-5.1-18.8-14.7-21.8-27
		c-4.4-18.5-1.7-36.4,5.8-53.5c12.2-27.8,33.9-44,63.7-49.3c17.1-3.1,33.9-1,50.4,3.9C355.8,137.2,356.3,137.5,357,137.8z"/>
	<path class="st0" d="M209,238c4.5-4,5.7-12.3,2.6-17.8c5.1,0,10,0,15.2,0c-0.5,6.9-2.5,13-6.3,18.5c-1.4,2-2.9,3.9-4.6,5.7
		c-1.3,1.4-1.2,2.3,0.1,3.5c7.7,7.2,16.6,12.7,26.1,17.1c0.7,0.3,1.4,0.6,2.1,1.3c-0.8,0-1.5,0-2.3,0c-8.4,0-16.9,0.1-25.3-0.1
		c-1.7,0-3.6-0.7-5.1-1.7c-2.6-1.7-5-3.8-7.2-6c-1.8-1.8-3-2-5.3-0.5c-7.6,5.1-15.9,9-25.1,10c-8.4,0.9-16.6-0.1-23.6-5.2
		c-11.6-8.6-13.4-26.1-3.8-38.1c5.3-6.6,12.4-10.6,20-13.7c2.9-1.2,5.8-2.2,8.8-3.2c1.9-0.6,2.6-1.5,2.5-3.6
		c-0.3-7.6,0.9-14.9,3.7-22c6.2-15.5,22.8-20.8,34.2-17.8c12.7,3.4,17.1,15.6,9.4,26.3c-3.7,5.2-8.8,8.8-14.3,11.8
		c-4.1,2.2-8.3,4.1-12.5,6.2c-1.1,0.6-2,1.1-1.7,2.6c1.8,9.8,6.1,18.5,11.9,26.5C208.6,237.9,208.8,237.9,209,238z M179.5,216.8
		c-8.4,4.3-15.6,9.1-18.7,18c-3.4,9.8,1.9,18.8,12,20.4c2.7,0.4,5.6,0.2,8.3-0.3c4.9-0.9,9.5-2.7,14-5.5
		C187.9,239.4,182.9,228.8,179.5,216.8z M194.5,200.7c1.1-0.4,1.6-0.4,1.9-0.6c7.2-4.8,13.3-10.6,16.9-18.7c0.8-1.7,1.1-3.7,1.2-5.6
		c0.1-4.1-3.1-6.6-6.9-5.1c-2.5,1-4.9,2.7-6.6,4.7c-3.6,4.2-5.3,9.3-5.9,14.8C194.7,193.6,194.7,197,194.5,200.7z"/>
</g>
</svg>
