<?xml version="1.0" encoding="utf-8"?>
<!-- Generator: Adobe Illustrator 27.9.0, SVG Export Plug-In . SVG Version: 6.00 Build 0)  -->
<svg version="1.1" id="Layer_1" xmlns="http://www.w3.org/2000/svg" xmlns:xlink="http://www.w3.org/1999/xlink" x="0px" y="0px"
	 viewBox="0 0 588.8 400" style="enable-background:new 0 0 588.8 400;" xml:space="preserve">
<style type="text/css">
	.st0{fill:#DBDBDB;}
</style>
<g>
	<path class="st0" d="M68.7,240.5h80.8v-80.8H68.7V240.5z M124.7,215.6H93.6v-31.1h31.1V215.6z"/>
	<rect x="174.5" y="184.5" class="st0" width="31.1" height="31.1"/>
	<g>
		<path class="st0" d="M230.4,159.6h45c16.5,0,24.1,11,24.1,21.1c0,7.3-2.8,11.9-10.3,16.3c9.4,3.5,14.6,9.8,14.6,19.5
			c0,11.6-8.4,23.9-28.3,23.9h-45.1L230.4,159.6z M255,222.2h16.3c5.8,0,8.4-4.1,8.4-7.8c0,1.7,0.7-6.7-7.6-6.7H255V222.2z
			 M255.1,191.5h13.1c6,0,8.4-2.8,8.4-6.9c0-0.9-0.3-6.2-6.7-6.2h-14.8V191.5z"/>
		<path class="st0" d="M329.5,159.6h26l29.7,80.7h-26.7l-3.9-12.1h-25l-3.3,12h-26.5L329.5,159.6z M341.4,183.6l-6.9,27h14.7
			L341.4,183.6z"/>
		<path class="st0" d="M426.7,183.6h24.8c0-13.7-10.3-26.4-34.8-26.4c-26.8,0-35.2,14.8-35.2,25.7c0,17.5,21.4,22.1,22.1,22.3
			c3.2,1,16.5,4.6,19.8,5.8c2.9,1,5.6,3.3,5.6,6.4c0,4.7-5.6,7-10.3,7c-3,0-13.1-1-13.1-11.7H380c0,14.2,9.8,30.1,37.2,30.1
			c30.3,0,36.6-18.1,36.6-27.7c0-7.8-4.4-16.5-14.7-20.7c-6.2-2.5-16.4-4.7-21.5-6.2c-2.6-0.8-11.2-2.5-11.2-7.8
			c0-6.7,11.1-5.9,9.5-5.9C420.9,174.6,426.7,177.5,426.7,183.6"/>
		<polygon class="st0" points="458.1,159.6 520,159.6 520,181 482.8,181 482.8,195.2 516,195.2 516,215.6 482.7,215.6 482.7,240.5 
			457.9,240.5 		"/>
	</g>
</g>
</svg>
