<?xml version="1.0" encoding="utf-8"?>
<!-- Generator: Adobe Illustrator 27.9.0, SVG Export Plug-In . SVG Version: 6.00 Build 0)  -->
<svg version="1.1" id="Layer_1" xmlns="http://www.w3.org/2000/svg" xmlns:xlink="http://www.w3.org/1999/xlink" x="0px" y="0px"
	 viewBox="0 0 906.2 400" style="enable-background:new 0 0 906.2 400;" xml:space="preserve">
<style type="text/css">
	.st0{fill:#DBDBDB;}
</style>
<g>
	<g>
		<polygon class="st0" points="617.2,201.5 617.2,242.6 631.7,242.6 631.7,201.5 631.7,160.4 617.2,160.4 		"/>
		<path class="st0" d="M328.5,207.9h21v15.4c-5,3.8-12.1,6.2-19.8,6.2c-16.8,0-28-12.4-28-29.4v-0.2c0-15.7,11.5-29,26.7-29
			c10.5,0,16.7,3.4,23,8.8l9.2-10.9c-8.4-7.2-17.3-11.1-31.6-11.1c-24.8,0-42.4,19.5-42.4,42.5v0.2c0,24,16.9,42.3,42.6,42.3
			c14.6,0,26.2-5.9,34.3-12.8v-34.5h-35V207.9z"/>
		<polygon class="st0" points="766.6,229.7 766.6,207.6 813.2,207.6 813.2,194.7 766.6,194.7 766.6,173.3 813.2,173.3 813.2,160.4 
			752.2,160.4 752.2,242.6 813.2,242.6 813.2,229.7 		"/>
		<polygon class="st0" points="77.4,242.6 91.9,242.6 91.9,209.2 138.6,209.2 138.6,196 91.9,196 91.9,173.6 138.7,173.6 
			138.7,160.4 77.4,160.4 		"/>
		<g>
			<path class="st0" d="M206.2,211.5c11.5-3.3,19.6-11.4,19.6-24.9v-0.2c0-7.2-2.5-13.3-6.8-17.7c-5.3-5.2-13.4-8.2-23.7-8.2h-36.7
				v82.2h14.4V214h17.9h0.2l20.2,28.7h17L206.2,211.5z M173.1,201.2v-27.6h21c10.7,0,17,4.8,17,13.6v0.2c0,8.3-6.6,13.7-16.9,13.7
				H173.1z"/>
		</g>
		<polygon class="st0" points="249.6,200.1 249.6,242.6 264.1,242.6 264.1,200.8 264.1,160.4 249.6,160.4 		"/>
		<polygon class="st0" points="389.3,201.5 389.3,242.6 403.8,242.6 403.8,202.1 403.8,160.4 389.3,160.4 		"/>
		<g>
			<path class="st0" d="M463.8,160.4h-30.7v82.2h30.7c25.8,0,43.7-18,43.7-41.1v-0.2C507.5,178.1,489.6,160.4,463.8,160.4z
				 M492.3,201.8c0,16.1-11.3,27.7-28.5,27.7h-16.2v-55.9h16.2c17.3,0,28.5,11.9,28.5,28V201.8z"/>
		</g>
		<g>
			<path class="st0" d="M708.6,211.5c11.5-3.3,19.6-11.4,19.6-24.9v-0.2c0-7.2-2.5-13.3-6.8-17.7c-5.3-5.2-13.4-8.2-23.7-8.2H661
				v82.2h14.4V214h17.9h0.2l20.2,28.7h17L708.6,211.5z M675.4,201.2v-27.6h21c10.7,0,17,4.8,17,13.6v0.2c0,8.3-6.6,13.7-16.9,13.7
				H675.4z"/>
		</g>
		<path class="st0" d="M556.8,157.2l-43.5,85.4h87.1L556.8,157.2z M556.7,186.2l21.7,43.3h-43.2L556.7,186.2z"/>
	</g>
	<g>
		<path class="st0" d="M816.2,236.5L816.2,236.5c0-3.5,2.8-6.3,6.3-6.3c3.5,0,6.3,2.8,6.3,6.3v0c0,3.4-2.8,6.3-6.3,6.3
			C818.9,242.8,816.2,240,816.2,236.5z M828.1,236.5L828.1,236.5c0-3.1-2.4-5.7-5.6-5.7c-3.2,0-5.7,2.6-5.7,5.7v0
			c0,3.1,2.4,5.6,5.6,5.6C825.7,242.2,828.1,239.6,828.1,236.5z M819.9,233h2.9c0.9,0,1.6,0.3,2,0.7c0.3,0.3,0.5,0.8,0.5,1.4v0
			c0,1.1-0.6,1.7-1.5,2l1.8,2.5h-1.5l-1.6-2.3h0h-1.3v2.3h-1.3V233z M822.8,236.2c0.8,0,1.3-0.4,1.3-1v0c0-0.7-0.5-1-1.3-1h-1.6v2.1
			H822.8z"/>
	</g>
</g>
</svg>
